<?xml version="1.0" encoding="utf-8"?>
<!-- Generator: Adobe Illustrator 19.0.0, SVG Export Plug-In . SVG Version: 6.00 Build 0)  -->
<svg version="1.1" id="Layer_1" xmlns:sketch="http://www.bohemiancoding.com/sketch/ns"
	 xmlns="http://www.w3.org/2000/svg" xmlns:xlink="http://www.w3.org/1999/xlink" x="0px" y="0px" viewBox="-282 296.7 200 200"
	 style="enable-background:new -282 296.7 200 200;" xml:space="preserve">
<style type="text/css">
	.st0{fill:#7CA739;}
	.st1{fill:#FFFFFF;}
	.st2{fill:#9EBEBC;}
	.st3{fill:#D9D9D8;}
	.st4{fill:#F26E26;}
	.st5{fill:#D75C27;}
	.st6{fill:#ECDDC9;}
	.st7{fill:#E0D3C1;}
	.st8{fill:#272724;}
	.st9{fill:#333330;}
	.st10{fill:#BAD6D5;}
	.st11{fill:#9BBBB9;}
	.st12{fill:#CBE4E2;}
	.st13{fill:#575757;}
	.st14{fill:#8BD3DF;}
	.st15{fill:#D6EEF3;}
	.st16{fill:#7CBEBE;}
	.st17{fill:#BEE5EC;}
	.st18{fill:#DEEEEC;}
	.st19{fill:#8AC5C3;}
	.st20{fill:#934E9D;}
	.st21{fill:#B4E0DE;}
	.st22{fill:#A465A8;}
	.st23{fill:#9FD7D4;}
	.st24{fill:#B1853F;}
	.st25{fill:#926A2D;}
	.st26{fill:#5D98C5;}
	.st27{fill:#9BB9D9;}
	.st28{fill:#518FB7;}
	.st29{fill:#5E5E5E;}
	.st30{fill:#62706F;}
	.st31{fill:#738180;}
	.st32{fill:#C6E6F9;}
	.st33{fill:#3F4040;}
</style>
<title>science-fox</title>
<desc>Created with Sketch.</desc>
<g id="Page-1_1_" sketch:type="MSPage">
	<g id="science-fox" sketch:type="MSArtboardGroup">
		<g id="Page-1" sketch:type="MSLayerGroup">
			<path id="Fill-1" sketch:type="MSShapeGroup" class="st0" d="M-282,297.4v126.9l52.4,45.7l121.1-116.9l-47.4-55.7H-282z"/>
			<g id="Group-6" transform="translate(25.908046, 28.142857)" sketch:type="MSShapeGroup">
				<path id="Fill-2" class="st0" d="M-281.1,381.3c0,46.5,37.7,84.2,84.3,84.2c46.5,0,84.3-37.7,84.3-84.2s-37.7-84.2-84.3-84.2
					h-84.3V381.3z"/>
				<path id="Fill-4" class="st1" d="M-273.9,381.3c0,42.5,34.5,77,77,77c42.5,0,77-34.5,77-77c0-42.5-34.5-77-77-77h-77V381.3z"/>
			</g>
			<g id="Group-296" transform="translate(65.333333, 54.034286)" sketch:type="MSShapeGroup">
				<path id="Fill-7" class="st1" d="M-222.7,298.4c2.2,1,3.9,2.2,3.7,5.5c-0.2,3.2-0.1,8.3-4.3,9.2c-1.3,0.3-6.2,0.6-8-0.7
					c-1.9-1.4-4.6-4.3-6-4.4c-1.4-0.1-2.6,3-3.2,4.5c-1,2.4-5.3,3.3-7,3.5c-2.4,0.3-4.8-0.1-7-3.7c-1.8-2.9-1.5-6.9,0-9.2
					c1.7-2.6,7.6-4.7,17.2-5.7C-229.2,296.6-225.1,297.3-222.7,298.4"/>
				<path id="Fill-9" class="st2" d="M-257.4,389.8c0,0,13.8,1.4,21.8,0.2c8.6-1.3,18.6-4.4,18.6-4.4v-10.8h-40.4V389.8z"/>
				<path id="Fill-11" class="st3" d="M-237.1,400.1c-14.1,0-25.6,2.9-25.6,6.6s11.4,6.6,25.6,6.6s25.6-2.9,25.6-6.6
					S-223,400.1-237.1,400.1"/>
				<path id="Fill-13" class="st4" d="M-233.3,378.5v26.1c0,0,7.2,3.1,9.3,3.6c4.3,1,5.9-2.7,3.7-3.2c-2.2-0.4-8.7-2.8-8.7-2.8
					v-22.7L-233.3,378.5z"/>
				<path id="Fill-15" class="st4" d="M-241.2,380.5v24.1c0,0-7.8,3.3-9.9,3.8c-3.8,0.8-5.3-2.9-3.1-3.3s8.7-2.8,8.7-2.8v-22.7
					L-241.2,380.5z"/>
				<path id="Fill-17" class="st4" d="M-200.5,359.8c-2.2,9.3-7.7,18.7-21.3,17.1c0,0,0.1-17.8,0.1-17.8c0-0.9,2.4-2.4,3-2.8
					c1.2-0.8,2.6-1.4,4-1.9c1.8-0.5,3.7-0.4,5.5-0.8"/>
				<path id="Fill-19" class="st5" d="M-203.1,358.9c-3.1,6.3-8.8,11-18.7,9.8c0,4.2,0,8.2,0,8.2c13.6,1.6,19.1-7.8,21.3-17.1"/>
				<path id="Fill-21" class="st6" d="M-199.3,343.2c0,3.8-2.2,7-5.5,8.8c-1.1,0.6-2.3,1.1-3.5,1.5c-0.4,0.1-0.8,0.2-1.2,0.3
					c0.6,1.4,2.7,4.6,8.9,6.1C-198.6,351.5-199.3,343.2-199.3,343.2"/>
				<path id="Fill-23" class="st7" d="M-199.2,346.9c0,0.1,0,0.2,0,0.3C-199.2,347.1-199.2,347-199.2,346.9"/>
				<path id="Fill-25" class="st7" d="M-199.2,346.4c0,0.1,0,0.1,0,0.2C-199.2,346.6-199.2,346.5-199.2,346.4"/>
				<path id="Fill-27" class="st7" d="M-199.2,347.4c0,0.1,0,0.2,0,0.4C-199.2,347.6-199.2,347.5-199.2,347.4"/>
				<path id="Fill-29" class="st7" d="M-199.2,345.6C-199.2,345.6-199.2,345.6-199.2,345.6C-199.2,345.6-199.2,345.6-199.2,345.6"/>
				<path id="Fill-31" class="st7" d="M-282,296.7"/>
				<path id="Fill-33" class="st7" d="M-199.2,346c0,0.1,0,0.1,0,0.2C-199.2,346.1-199.2,346-199.2,346"/>
				<path id="Fill-35" class="st7" d="M-199.2,347.9c0,0.1,0,0.3,0,0.4C-199.2,348.2-199.2,348.1-199.2,347.9"/>
				<path id="Fill-37" class="st7" d="M-199.2,348.5c0,0.2,0,0.3,0,0.5C-199.2,348.8-199.2,348.6-199.2,348.5"/>
				<path id="Fill-39" class="st7" d="M-199.2,349c0,0.2,0,0.4,0,0.6C-199.2,349.4-199.2,349.2-199.2,349"/>
				<path id="Fill-41" class="st7" d="M-199.3,343.5c0,0.3,0,0.6-0.1,1c0,0,0,0,0,0C-199.4,344.1-199.3,343.8-199.3,343.5
					C-199.3,343.4-199.3,343.4-199.3,343.5"/>
				<path id="Fill-43" class="st7" d="M-199.3,343.2C-199.3,343.2-199.3,343.2-199.3,343.2c0,0.1,0,0.2,0,0.2c0,0,0,0,0,0
					C-199.3,343.3-199.3,343.3-199.3,343.2"/>
				<path id="Fill-45" class="st7" d="M-199.2,345.6c0,0.1,0,0.2,0,0.3C-199.2,345.9-199.2,345.8-199.2,345.6"/>
				<path id="Fill-47" class="st7" d="M-199.2,346.1c0,0.1,0,0.2,0,0.3C-199.2,346.3-199.2,346.2-199.2,346.1"/>
				<path id="Fill-49" class="st7" d="M-199.2,349C-199.2,349-199.2,349-199.2,349C-199.2,349-199.2,349-199.2,349"/>
				<path id="Fill-51" class="st7" d="M-199.2,349.6L-199.2,349.6L-199.2,349.6"/>
				<path id="Fill-53" class="st7" d="M-199.2,345.2c0,0.1,0,0.3,0,0.4C-199.2,345.4-199.2,345.3-199.2,345.2"/>
				<path id="Fill-55" class="st7" d="M-199.2,346.7c0,0.1,0,0.2,0,0.3C-199.2,346.8-199.2,346.7-199.2,346.7"/>
				<path id="Fill-57" class="st7" d="M-199.2,348.4c0,0,0,0.1,0,0.1C-199.2,348.4-199.2,348.4-199.2,348.4"/>
				<path id="Fill-59" class="st7" d="M-199.2,347.8c0,0.1,0,0.1,0,0.2C-199.2,347.9-199.2,347.8-199.2,347.8"/>
				<path id="Fill-61" class="st7" d="M-199.2,345.2c0-1.2-0.1-2-0.1-2v0c0,0,0,0,0,0C-199.3,343.4-199.3,344.1-199.2,345.2"/>
				<path id="Fill-63" class="st7" d="M-199.2,347.2v0.2V347.2"/>
				<path id="Fill-65" class="st7" d="M-199.2,349C-199.2,349-199.2,349-199.2,349c0-0.2,0-0.4,0-0.6c0,0,0-0.1,0-0.1
					c0-0.1,0-0.3,0-0.4c0-0.1,0-0.1,0-0.2c0-0.1,0-0.2,0-0.4v-0.2v-0.3c0-0.1,0-0.2,0-0.3c0-0.1,0-0.2,0-0.2c0-0.1,0-0.2,0-0.3
					c0-0.1,0-0.1,0-0.2c0-0.1,0-0.2,0-0.3c0,0,0-0.1,0-0.1c0-0.1,0-0.3,0-0.4l0,0c0-1.1-0.1-1.8-0.1-1.9c0,0.1,0,0.1,0,0.2
					c0,0.4,0,0.7-0.1,1c-0.4,4.5-1.4,10-3.7,14.6c0.8,0.3,1.6,0.6,2.6,0.8c0.9-3.7,1.2-7.3,1.3-10.3v0
					C-199.2,349.4-199.2,349.2-199.2,349"/>
				<path id="Fill-67" class="st7" d="M-199.3,343.2C-199.3,343.2-199.3,343.2-199.3,343.2c0,0,0,0.1,0,0.2
					C-199.3,343.4-199.3,343.3-199.3,343.2"/>
				<path id="Fill-69" class="st4" d="M-257.4,297.3v45h40.4v-45l-5.4,4.7h-29.2L-257.4,297.3z"/>
				<path id="Fill-71" class="st6" d="M-217,309.8v18.1l-15.3,5C-231.5,311.5-219.5,309.9-217,309.8"/>
				<path id="Fill-73" class="st6" d="M-282,296.7"/>
				<path id="Fill-75" class="st6" d="M-247.2,314c12.1,8.5,10.5,18.8,10.5,18.8l-20.8-4.9v-18.2
					C-257.4,309.8-251.6,310.9-247.2,314"/>
				<path id="Fill-77" class="st8" d="M-246.6,321.4c0.6,0.6,0.6,1.6,0,2.2c-0.6,0.6-1.6,0.6-2.2,0c-0.6-0.6-0.6-1.6,0-2.2
					C-248.2,320.8-247.2,320.8-246.6,321.4"/>
				<path id="Fill-79" class="st8" d="M-222,321.3c0.6,0.6,0.6,1.6,0,2.2c-0.6,0.6-1.6,0.6-2.2,0c-0.6-0.6-0.6-1.6,0-2.2
					C-223.7,320.7-222.7,320.7-222,321.3"/>
				<path id="Fill-81" class="st8" d="M-236.6,332.8c0,0,0.1-1.7-0.6-4.3l5.3,0c-0.2,1.3-0.3,2.8-0.3,4.3"/>
				<path id="Fill-83" class="st9" d="M-237.3,328.5l5.3,0c-0.1,0.4-0.1,0.9-0.1,1.3l-4.9,0C-237,329.5-237.1,329-237.3,328.5"/>
				<path id="Fill-85" class="st7" d="M-217,309.8v2.3c-3.8,0.5-13.6,3.5-15.1,20.7l-0.1,0C-231.4,311.5-219.5,309.9-217,309.8"/>
				<path id="Fill-87" class="st7" d="M-257.4,309.8l0,2.3c5.3,0.5,18.8,3.5,20.8,20.7l0.2,0C-237.5,311.5-254,309.9-257.4,309.8"/>
				<path id="Fill-89" class="st10" d="M-257.4,329.6v59.6c4,0,19.6-4.6,23.5-9.6c3.9,4,13.8,6.2,16.9,5.9v-55.7l-16.9,9.8
					L-257.4,329.6z"/>
				<path id="Fill-91" class="st4" d="M-203.6,326c0.3,0.8,0.5,1.7,0.3,2.5c-0.4,1.7-3.3,3.5-3.3,3.5s0.5,2.8,1.9,4.4
					c2.9-1.8,5.2-3.5,5.9-6.3c0.3-1.2,0.2-2.6-0.1-4.2C-200.5,325.9-202,325.9-203.6,326"/>
				<path id="Fill-93" class="st10" d="M-217,334.8c0,0,5.3,0.7,10.4-3.9c1.3,1.8,2.7,4.1,2.9,6.1c-4.4,2.6-7.4,3.5-13.3,3.8
					L-217,334.8L-217,334.8z"/>
				<path id="Fill-95" class="st11" d="M-233.9,339.7c0,0,2.2,3.6,3.2,8.1c8.2-8.1,11.5-13.7,13.6-17.9
					C-221.3,332.3-233.9,339.7-233.9,339.7"/>
				<path id="Fill-97" class="st12" d="M-233.9,339.7c0,0,2.7,1.5,3.8,6.1c5.7-6,10.8-11.6,13.1-15.9
					C-221.3,332.3-233.9,339.7-233.9,339.7"/>
				<path id="Fill-99" class="st13" d="M-219,303.9c0.7,0,1.2,0.1,2,0.5c0.1,0.1,0.3,0.3,0.3,0.6c0,1.1,0,2.5,0,3.2
					c0,0.3-0.4,0.5-0.4,0.5s-1.8-0.6-2.3-0.6C-219.1,306.1-219,304.3-219,303.9"/>
				<path id="Fill-101" class="st14" d="M-251.6,301.9l-0.8-0.6c-1,0.6-1.7,1.2-2.2,1.9c-1.5,2.2-1.8,6.3,0,9.2c2.2,3.5,4.6,4,7,3.7
					c1.7-0.2,6-1.1,7-3.5c0.7-1.6,1.9-4.6,3.2-4.5c1.4,0.1,4.1,2.9,6,4.4c1.8,1.4,6.7,1,8,0.7c4.2-0.9,4.1-6,4.3-9.2
					c0.1-1.8-0.4-3-1.2-3.9l-2.2,1.9L-251.6,301.9L-251.6,301.9z"/>
				<path id="Fill-103" class="st15" d="M-251.6,301.9h29.2l2.2-1.9c-0.6-0.7-1.5-1.2-2.5-1.6c-2.4-1.1-6.5-1.8-14.7-1
					c-7.1,0.8-12.2,2.1-15,3.9L-251.6,301.9z"/>
				<path id="Fill-105" class="st14" d="M-219.2,301.9c-0.2,3.2-0.5,7.2-4.2,8c-1.3,0.3-6.2,0.6-8-0.7c-1.9-1.4-4.6-4.3-6-4.4
					c-1.4-0.1-2.6,3-3.2,4.5c-1,2.4-5.3,3.3-7,3.5c-2.4,0.3-4.8-0.1-7-3.7c-0.5-0.9-0.9-1.9-1.1-2.9c-0.2,2.1,0.1,4.4,1.1,6.1
					c2.2,3.5,4.6,4,7,3.7c1.7-0.2,6-1.1,7-3.5c0.7-1.6,1.9-4.6,3.2-4.5c1.4,0.1,4.1,2.9,6,4.4c1.8,1.4,6.7,1,8,0.7
					c4.2-0.9,4.1-6,4.3-9.2C-219,303.1-219,302.5-219.2,301.9"/>
				<path id="Fill-107" class="st16" d="M-254.5,309.4c0,0,1.9,3.2,4.9,3.2c1.9,0,5.1-1.1,5.7-1.4c3.6-1.5,4.5-4.6,4.5-4.6
					s-0.9,4.2-3.4,5.2c-1,0.4-4.8,2.1-7.5,1.7C-252.8,312.9-254.2,310.2-254.5,309.4"/>
				<path id="Fill-109" class="st16" d="M-219.7,305.2c0,0-0.3,3.3-2.8,4.1c-2.3,0.7-5.8,0.4-6.5,0.3c-3.6-0.6-6-3.4-6-3.4
					s1.4,2.9,5.5,4.2c1,0.3,5.5,0.7,7.5-0.3C-219.8,309-219.8,306.1-219.7,305.2"/>
				<path id="Fill-111" class="st16" d="M-220.5,310.7c-1.2,1.7-2.8,1.9-4.4,2.2c-1.1,0.2-3.3,0.3-5.4-0.4c-0.7-0.2-2.6-1.5-2.9-1.9
					c-0.3-0.4-2.7-3.2-4.1-3c-0.8,0.1-1.7,1-2.3,1.9c-0.7,1.2-1.7,3.7-2.9,4.6c-2,1.4-4.2,1.9-6.3,2c-2.6,0-4.9-2.3-4.9-2.3
					c0.4,0.8,2.4,3.1,4.7,3.1c3.5,0,5.6-0.7,7.3-2.1c1.2-1,1.8-3.7,2.7-4.8c0.4-0.5,1.1-1.6,1.7-1.7c0.6-0.1,1.9,1,2.3,1.5
					c0.6,0.7,1.2,1.6,2.6,2.8c0.4,0.4,2.1,1.3,3.3,1.5c2.4,0.4,5.6-0.2,6.6-0.4c1-0.3,1.7-1.3,2.2-2.1c0.4-0.6,0.7-1.8,0.8-3.1
					C-219.7,309.3-219.8,309.6-220.5,310.7"/>
				<path id="Fill-113" class="st14" d="M-221,301.2c-0.1-0.1-0.2-0.2-0.2-0.3l-0.1,0.1C-221.3,301.1-221.1,301.2-221,301.2"/>
				<path id="Fill-115" class="st14" d="M-252.8,304.1c1-0.6,3.5-1.5,6.1-2.2h-3.2c-1,0.4-2,0.8-2.7,1.3c-1.2,0.9-2.1,2.6-2.1,2.6
					S-254,304.8-252.8,304.1"/>
				<path id="Fill-117" class="st17" d="M-221.3,301c-0.7-0.7-1.8-1.2-2.6-1.5c-0.9-0.3-4.1-0.6-8.5-0.4c-4.7,0.2-11.1,1.3-12.4,1.5
					c-0.9,0.2-3.1,0.6-5.1,1.3h3.2c0.7-0.2,1.4-0.3,2-0.5c3.4-0.6,9.7-1.4,12.3-1.6c3-0.1,5.9-0.1,8.3,0.2
					C-222.6,300.3-222.1,300.5-221.3,301L-221.3,301z"/>
				<path id="Fill-119" class="st13" d="M-255.8,307.8l-1.6,0.3c0,0-0.4,0.1-0.4,0.5v4c0,0.3,0.4,0.4,0.4,0.4s1.1-0.6,2.9-0.8
					C-255.3,310.7-255.6,310.3-255.8,307.8"/>
				<path id="Fill-121" class="st12" d="M-233.9,339.7v40c0,0-10.2,10.2-23.5,10.2v-60.2L-233.9,339.7z"/>
				<path id="Fill-123" class="st11" d="M-257.4,329.6l23.5,10c0,0-2.3,3.6-3.4,8.1C-245.5,343.6-254.6,334-257.4,329.6"/>
				<path id="Fill-125" class="st10" d="M-240.3,351.5l4.7,2.2l-10.5,31.9l-11.3-7.1v-8.9L-240.3,351.5z"/>
				<path id="Fill-127" class="st18" d="M-257.4,329.6l23.5,10c0,0-2.7,2-3.8,6.5C-246.1,341-255,332.6-257.4,329.6"/>
				<path id="Fill-129" class="st11" d="M-217,339.1c0,0,3.2,1.1,10.2-0.5c-3.9,2.1-10.2,2.1-10.2,2.1V339.1z"/>
				<path id="Fill-131" class="st11" d="M-229.9,351.3l9.8-0.7v1.6l-9.8,1V351.3z"/>
				<path id="Fill-133" class="st12" d="M-229.9,351.3c0,0,5.8,0.7,9.8-0.7v10.6c0,1.3-2,3.2-4.2,3.4c-3.1,0.3-5.7-1.1-5.7-3V351.3z
					"/>
				<path id="Fill-135" class="st16" d="M-208.3,340.3l2.9-36.5l-5.8-0.5l-2.9,36.5l0,0l0,0l0,0.3l0,0c0,1.5,1.2,2.7,2.7,2.9
					c1.5,0.1,2.8-0.9,3.1-2.4l0,0L-208.3,340.3L-208.3,340.3L-208.3,340.3z"/>
				<path id="Fill-137" class="st1" d="M-210.3,304l-2.1,25.9l0,0c0,1,0.8,1.9,1.9,2c1.1,0.1,2-0.7,2.2-1.7l0,0l2.1-25.9L-210.3,304
					z"/>
				<path id="Fill-139" class="st19" d="M-208.1,302.4c-1.7-0.1-2.7,0.2-3.1,1c-0.1,0.3-0.2,0.7-0.1,1c0.2,0.7,1.3,1.3,2.9,1.5
					c1.7,0.1,2.7-0.3,3.1-1c0.1-0.3,0.2-0.6,0.1-1C-205.5,303.1-206.5,302.6-208.1,302.4"/>
				<path id="Fill-141" class="st20" d="M-211.1,314.2l-2.1,25.9l0,0c0,1,0.8,1.9,1.9,2c1.1,0.1,2-0.7,2.2-1.7l0,0l2.1-26.2
					L-211.1,314.2z"/>
				<path id="Fill-143" class="st21" d="M-210,304.1c0.3,0.3,1,0.5,1.7,0.5c0.8,0.1,1.4-0.1,1.8-0.3c-0.3-0.3-1-0.5-1.7-0.5
					C-209,303.7-209.6,303.8-210,304.1"/>
				<path id="Fill-145" class="st22" d="M-207.1,314.4c-0.3,0.5-1.4,0.7-2.5,0.7c-1.1-0.1-1.8-0.5-1.5-1c0.3-0.5,1.4-0.7,2.5-0.7
					C-207.5,313.5-206.8,314-207.1,314.4"/>
				<g id="Group-177" transform="translate(67.586207, 9.005714)">
					<path id="Fill-147" class="st1" d="M-276.5,300.3c-1-0.1-1.8-0.3-2.3-0.7l-0.1,0.8c0.5,0.3,1.4,0.6,2.3,0.7L-276.5,300.3z"/>
					<path id="Fill-149" class="st1" d="M-276.4,298.1c-1-0.1-1.8-0.3-2.3-0.7l-0.1,0.8c0.5,0.3,1.4,0.6,2.3,0.7L-276.4,298.1z"/>
					<path id="Fill-151" class="st1" d="M-276.7,302.5c-1-0.1-1.8-0.3-2.3-0.7l-0.1,0.8c0.5,0.3,1.4,0.6,2.3,0.7L-276.7,302.5z"/>
					<path id="Fill-153" class="st1" d="M-276.9,304.7c-1-0.1-1.8-0.3-2.3-0.7l-0.1,0.8c0.5,0.3,1.4,0.6,2.3,0.7L-276.9,304.7z"/>
					<path id="Fill-155" class="st1" d="M-277.1,306.8c-1-0.1-1.8-0.3-2.3-0.7l-0.1,0.8c0.5,0.3,1.4,0.6,2.3,0.7L-277.1,306.8z"/>
					<path id="Fill-157" class="st1" d="M-277.3,309c-1-0.1-1.8-0.3-2.3-0.7l-0.1,0.8c0.5,0.3,1.4,0.6,2.3,0.7L-277.3,309z"/>
					<path id="Fill-159" class="st1" d="M-277.4,311.2c-1-0.1-1.8-0.3-2.3-0.7l-0.1,0.8c0.5,0.3,1.4,0.6,2.3,0.7L-277.4,311.2z"/>
					<path id="Fill-161" class="st1" d="M-277.6,313.4c-1-0.1-1.8-0.3-2.3-0.7l-0.1,0.8c0.5,0.3,1.4,0.6,2.3,0.7L-277.6,313.4z"/>
					<path id="Fill-163" class="st1" d="M-277.8,315.6c-1-0.1-1.8-0.3-2.3-0.7l-0.1,0.8c0.5,0.3,1.4,0.6,2.3,0.7L-277.8,315.6z"/>
					<path id="Fill-165" class="st1" d="M-278.3,322.1c-1-0.1-1.8-0.3-2.3-0.7l-0.1,0.8c0.5,0.3,1.4,0.6,2.3,0.7L-278.3,322.1z"/>
					<path id="Fill-167" class="st1" d="M-278.5,324.3c-1-0.1-1.8-0.3-2.3-0.7l-0.1,0.8c0.5,0.3,1.4,0.6,2.3,0.7L-278.5,324.3z"/>
					<path id="Fill-169" class="st1" d="M-278.7,326.5c-1-0.1-1.8-0.3-2.3-0.7l-0.1,0.8c0.5,0.3,1.4,0.6,2.3,0.7L-278.7,326.5z"/>
					<path id="Fill-171" class="st1" d="M-278.9,328.7c-1-0.1-1.8-0.3-2.3-0.7l-0.1,0.8c0.5,0.3,1.4,0.6,2.3,0.7L-278.9,328.7z"/>
					<path id="Fill-173" class="st1" d="M-278,317.8c-1-0.1-1.8-0.3-2.3-0.7l-0.1,0.8c0.5,0.3,1.4,0.6,2.3,0.7L-278,317.8z"/>
					<path id="Fill-175" class="st1" d="M-278.1,319.9c-1-0.1-1.8-0.3-2.3-0.7l-0.1,0.8c0.5,0.3,1.4,0.6,2.3,0.7L-278.1,319.9z"/>
				</g>
				<path id="Fill-178" class="st23" d="M-205.2,303.9c-0.3-0.8-1.3-1.3-2.9-1.5c-1.7-0.1-2.7,0.2-3.1,1c-0.1,0.3-0.2,0.7-0.1,1
					c0.2,0.7,1.3,1.3,2.9,1.5c1.7,0.1,2.7-0.3,3.1-1C-205.2,304.6-205.1,304.2-205.2,303.9"/>
				<path id="Fill-180" class="st24" d="M-206.2,303.9c0,0-0.1,1.1-0.1,1.8c-2.1,0.6-4.1-0.3-4.1-0.3l0.1-1.8L-206.2,303.9z"/>
				<path id="Fill-182" class="st25" d="M-210.4,302.1l0.1,1.4c0,0-0.1,0.8,1.9,1c2.1,0.2,2.2-0.7,2.2-0.7l0.4-1.3L-210.4,302.1z"/>
				<path id="Fill-184" class="st24" d="M-205.7,302.5c0,0.5-1.1,0.8-2.4,0.7c-1.3-0.1-2.3-0.6-2.2-1.1c0-0.5,1.1-0.8,2.4-0.7
					C-206.7,301.4-205.7,301.9-205.7,302.5"/>
				<path id="Fill-186" class="st4" d="M-201.5,320c-2.2-3.7-5.2-4.3-6.2-3.9c-1.5,0.6-1.8,3.1-0.6,4.2c0.8,0.8,3.7,3.1,4.7,5.6
					c1.5-0.1,3.1-0.1,4.6-0.1C-199.4,324.1-200.2,322.2-201.5,320"/>
				<path id="Fill-188" class="st6" d="M-201.5,320c-2.2-3.7-5.2-4.3-6.2-3.9c-1.5,0.6-1.8,3.1-0.6,4.2c0.5,0.5,2,1.7,3.2,3.2
					c1.4-0.4,3.1-1.3,4-3C-201.2,320.4-201.4,320.2-201.5,320"/>
				<path id="Fill-190" class="st7" d="M-207.6,316.8c0,0,1.2-0.4,2.7,0.5c1.5,0.9,2.9,2.6,3.6,3.8c-0.2,0.4-0.4,0.6-0.8,0.9
					c-0.5-0.6-2.4-3.3-3.6-4.1C-206.8,317.3-207.2,316.9-207.6,316.8"/>
				<path id="Fill-192" class="st26" d="M-273.9,334.8l-8,28.4l35,20.6l10.5-32.5L-273.9,334.8z"/>
				<path id="Fill-194" class="st27" d="M-269.2,341l-0.4,1.3l1.1,0.5l0.5-1.2L-269.2,341z"/>
				<path id="Fill-196" class="st27" d="M-273.3,339l-0.3,1.2l3.4,1.7l0.3-1.3L-273.3,339z"/>
				<path id="Fill-198" class="st27" d="M-272.8,336.9l-0.4,1.4l7.2,3.5l0.5-1.6L-272.8,336.9z"/>
				<path id="Fill-200" class="st27" d="M-267.7,347c-0.2,0.5-0.7,0.7-1.1,0.6c-0.4-0.2-0.6-0.7-0.4-1.1c0.2-0.5,0.7-0.7,1.1-0.6
					C-267.7,346-267.5,346.5-267.7,347"/>
				<path id="Fill-202" class="st27" d="M-253.4,354.8l-0.7-3.7c-0.2,0.1-0.5,0.2-0.7,0.2l0.7,3.7
					C-253.9,354.9-253.6,354.8-253.4,354.8"/>
				<path id="Fill-204" class="st27" d="M-260.6,354.2c-0.1-0.2-0.1-0.5,0-0.7l-3.6,0.2c0,0.2,0,0.5-0.1,0.8L-260.6,354.2z"/>
				<path id="Fill-206" class="st27" d="M-246.4,352.3c-0.2,0.2-0.4,0.3-0.7,0.3l2.1,7.9c0.2-0.2,0.4-0.3,0.7-0.3L-246.4,352.3z"/>
				<path id="Fill-208" class="st27" d="M-267.6,347.7c-0.2,0.2-0.4,0.3-0.6,0.4l1.9,5.1c0.2-0.2,0.4-0.4,0.6-0.4L-267.6,347.7z"/>
				<path id="Fill-210" class="st27" d="M-255.9,350.4l-2.5,2.1c0.2,0.2,0.3,0.4,0.3,0.7l2.6-2.2
					C-255.7,350.9-255.8,350.7-255.9,350.4"/>
				<path id="Fill-212" class="st27" d="M-269.7,346.8l-4.3,2.3l0.4,0.7l4.1-2.2C-269.6,347.4-269.7,347.1-269.7,346.8"/>
				<path id="Fill-214" class="st27" d="M-248.3,351.8l-4.3,3.4c0.2,0.2,0.3,0.4,0.3,0.7l4.4-3.4
					C-248.1,352.3-248.2,352.1-248.3,351.8"/>
				<path id="Fill-216" class="st27" d="M-274.3,350.4c-0.2,0.5-0.7,0.7-1.1,0.6c-0.4-0.2-0.6-0.7-0.4-1.1c0.2-0.5,0.7-0.7,1.1-0.6
					C-274.3,349.4-274.2,349.9-274.3,350.4"/>
				<path id="Fill-218" class="st27" d="M-243.4,361.8c-0.2,0.5-0.7,0.7-1.1,0.6c-0.4-0.2-0.6-0.7-0.4-1.1c0.2-0.5,0.7-0.7,1.1-0.6
					C-243.4,360.8-243.2,361.4-243.4,361.8"/>
				<path id="Fill-220" class="st27" d="M-246.4,351.5c-0.2,0.5-0.7,0.7-1.1,0.6c-0.4-0.2-0.6-0.7-0.4-1.1c0.2-0.5,0.7-0.7,1.1-0.6
					C-246.4,350.5-246.2,351.1-246.4,351.5"/>
				<path id="Fill-222" class="st27" d="M-252.8,356.6c-0.2,0.5-0.7,0.7-1.1,0.6c-0.4-0.2-0.6-0.7-0.4-1.1c0.2-0.5,0.7-0.7,1.1-0.6
					C-252.8,355.6-252.6,356.2-252.8,356.6"/>
				<path id="Fill-224" class="st27" d="M-254,350.3c-0.2,0.5-0.7,0.7-1.1,0.6c-0.4-0.2-0.6-0.7-0.4-1.1c0.2-0.5,0.7-0.7,1.1-0.6
					C-254,349.3-253.8,349.8-254,350.3"/>
				<path id="Fill-226" class="st27" d="M-258.6,354c-0.2,0.5-0.7,0.7-1.1,0.6c-0.4-0.2-0.6-0.7-0.4-1.1c0.2-0.5,0.7-0.7,1.1-0.6
					C-258.6,353-258.5,353.5-258.6,354"/>
				<path id="Fill-228" class="st27" d="M-264.8,354.4c-0.2,0.5-0.7,0.7-1.1,0.6c-0.4-0.2-0.6-0.7-0.4-1.1c0.2-0.5,0.7-0.7,1.1-0.6
					C-264.8,353.4-264.6,353.9-264.8,354.4"/>
				<path id="Fill-230" class="st27" d="M-259.5,374.8l2.1,1.3l0.6-1.4l-2.3-1.5L-259.5,374.8z"/>
				<path id="Fill-232" class="st27" d="M-262.8,373l2.1,1.3l2.4-6.7l-2.3-1.5L-262.8,373z"/>
				<path id="Fill-234" class="st27" d="M-266.2,371l2.1,1.3l1.5-4.1l-2.3-1.5L-266.2,371z"/>
				<path id="Fill-236" class="st27" d="M-269.5,368.9l2.1,1.3l1-2.6l-2.3-1.5L-269.5,368.9z"/>
				<path id="Fill-238" class="st27" d="M-272.8,366.7l2.1,1.3l2.1-6.5l-2.3-1.5L-272.8,366.7z"/>
				<path id="Fill-240" class="st27" d="M-276.1,364.6l2.1,1.3l2.5-8l-2.3-1.5L-276.1,364.6z"/>
				<path id="Fill-242" class="st27" d="M-279.3,362.6l2.1,1.3l1.5-4.8l-2.3-1.5L-279.3,362.6z"/>
				<path id="Fill-244" class="st27" d="M-252.2,377.5c-0.8-0.3-1.4-0.9-1.8-1.8c-0.3-0.9-0.3-1.9,0-2.9c0.6-1.6,1.9-2.6,3.2-2.7
					l-0.5,3.9c0,0,1.8,0,3.6,0c0,0.3-0.1,0.7-0.2,1C-248.6,377-250.5,378.1-252.2,377.5 M-249.3,369.6c-2.1-0.8-4.4,0.6-5.3,2.9
					c-0.4,1.1-0.4,2.4,0,3.4c0.4,1.1,1.2,1.9,2.2,2.3c0.4,0.2,0.9,0.2,1.3,0.2c1.7-0.1,3.3-1.3,4-3.2
					C-246.3,372.9-247.2,370.3-249.3,369.6"/>
				<path id="Fill-246" class="st27" d="M-277.3,352.9l32.5,17.9l0.4-1.1l-32.6-17.8L-277.3,352.9z"/>
				<path id="Fill-248" class="st27" d="M-257.4,357.6l-1,3.1l9.6,5.4l1.3-3.1l-6.4-3.7l-0.1-1.5l-0.9,1.1L-257.4,357.6z"/>
				<path id="Fill-250" class="st28" d="M-265.2,345.1c0,0-3.2,6.2-3.8,11.9c-0.2,2.7-0.5,7.4,0.7,8.9c1.2,1.5,4.7,1.4,4.4-2
					c-0.2-3.4-0.3-4.4-0.1-7.8c0.1-1.5,1-4.5,1.8-7.2c0.3,0,0.7,0.2,0.7,0.2s2.1-4.9,3.3-6.7C-259.3,341.9-265.2,345.1-265.2,345.1"
					/>
				<path id="Fill-252" class="st25" d="M-257.4,330.7c0,0,4.8,10.9,17.2,16.1c-0.2,1.1,0.1,1.1-0.3,2.2
					c-8.1-4.1-13.2-7.1-16.9-15.5L-257.4,330.7L-257.4,330.7z"/>
				<path id="Fill-254" class="st25" d="M-217,331.9c0,0-4.1,11.2-9.5,15.2c0.1,1.1,0,1.4,0.3,2.4c3.9-3.1,6.8-6.6,9.2-14.8V331.9z"
					/>
				<path id="Fill-256" class="st29" d="M-224.9,354.7c0,0-0.5-0.1-1.1-0.1l-0.9-6c0,0-2.3-0.4-3.1-0.4c-0.5,0-1.9,0.2-2.5,0.3
					c-1.5-0.1-4.5-0.3-5-0.3c-0.8,0-3.1,0.4-3.1,0.4l-0.9,6c-0.7,0.1-1.1,0.1-1.1,0.1l-1.7,12c0,0,2.1,1.1,5.2,1.1
					c1.9,0,4.7-0.8,5.9-1.1v0c0,0,2.7,1.1,5.2,1.1c3.1,0,5.2-1.1,5.2-1.1L-224.9,354.7z"/>
				<path id="Fill-258" class="st13" d="M-235.5,346.2h-4.4l0.3-3.3c0,0,1-0.3,2.3-0.3c0.5,0,1.8,0.4,1.8,0.4L-235.5,346.2
					L-235.5,346.2z"/>
				<path id="Fill-260" class="st30" d="M-234.7,352.8h-7.5l1.1-7.1c0,0,2.5-0.4,3.3-0.4c0.8,0,3.1,0.4,3.1,0.4V352.8z"/>
				<path id="Fill-262" class="st31" d="M-240.4,346.2l-1,7.4l1.4-0.3l1-7.3C-239,346-239.2,345.8-240.4,346.2"/>
				<path id="Fill-264" class="st30" d="M-234.1,365.1c0,0-2.9,1.1-5.5,1.1c-3.3,0-5.5-1.1-5.5-1.1l1.9-12.7c0,0,3.1-0.4,4.6-0.4
					c2,0,4.5,0.4,4.5,0.4S-234.1,365.1-234.1,365.1z"/>
				<path id="Fill-266" class="st32" d="M-243.5,364.8c0,0,2.7-0.2,3.6-0.2c1,0,4,0.2,4,0.2s-1.5,0.7-4.1,0.7
					C-242.2,365.5-243.5,364.8-243.5,364.8"/>
				<path id="Fill-268" class="st31" d="M-242.6,353.1l-1.6,11.1l2.5-0.4l1.3-10.9C-240.4,352.9-241.5,352.8-242.6,353.1"/>
				<path id="Fill-270" class="st13" d="M-231.9,346.2h4.4l-0.3-3.3c0,0-1-0.3-2.3-0.3c-0.5,0-1.8,0.4-1.8,0.4L-231.9,346.2
					L-231.9,346.2z"/>
				<path id="Fill-272" class="st30" d="M-232.7,352.8h7.5l-1.1-7.1c0,0-2.5-0.4-3.3-0.4c-0.8,0-3.1,0.4-3.1,0.4V352.8z"/>
				<path id="Fill-274" class="st31" d="M-231.9,346.1v6.3c0,0,0.8-0.2,1.4-0.2c0-0.6-0.2-6.3-0.2-6.3S-231.3,345.9-231.9,346.1"/>
				<path id="Fill-276" class="st33" d="M-231.3,351.2h-4.7l0.6,0.6h3.6L-231.3,351.2z"/>
				<path id="Fill-278" class="st13" d="M-231.3,351.2h-4.7l0.2-4.1h4.4L-231.3,351.2z"/>
				<path id="Fill-280" class="st30" d="M-233.3,365.1c0,0,2.9,1.1,5.5,1.1c3.3,0,5.5-1.1,5.5-1.1l-1.9-12.7c0,0-3.1-0.4-4.6-0.4
					c-2,0-4.5,0.4-4.5,0.4S-233.3,365.1-233.3,365.1z"/>
				<path id="Fill-282" class="st31" d="M-232.3,353.2v10.7c0,0,1.6-0.3,2.6-0.3c0-1-0.5-10.7-0.5-10.7S-231.3,352.8-232.3,353.2"/>
				<path id="Fill-284" class="st32" d="M-231.4,364.8c0,0,2.7-0.2,3.6-0.2c1,0,4,0.2,4,0.2s-1.5,0.7-4.1,0.7
					C-230.1,365.5-231.4,364.8-231.4,364.8"/>
				<path id="Fill-286" class="st4" d="M-266,345.1c0,0-3.2,6.2-3.8,11.9c-0.2,2.7-0.5,7.4,0.7,8.9c1.2,1.5,4.7,1.4,4.4-2
					c-0.2-3.4-0.3-4.4-0.1-7.8c0.2-3.4,2.5-9.1,3-10.2C-262.9,345.2-266,345.1-266,345.1"/>
				<path id="Fill-288" class="st6" d="M-269.1,366c1.2,1.5,4.7,1.4,4.4-2c-0.1-1.4-0.2-2.4-0.2-3.3c0,0-2.2,0.4-2.9,0.4
					c-0.7,0-2.3-0.4-2.3-0.4C-270,362.8-269.8,365-269.1,366"/>
				<path id="Fill-290" class="st7" d="M-266.7,360.9c0,0,0.8,3.6-0.3,5.2c1.2-0.3,1.8-0.8,1.9-1.8c0.1-0.8-0.1-2.2-0.3-3.6
					C-265.9,360.8-266.7,360.9-266.7,360.9"/>
				<path id="Fill-292" class="st12" d="M-257.4,333.5c0,0-8.2,8.1-9.9,12c1.5,0.9,3.8,1.8,5.4,2.8c1.2-1.8,3.2-5.3,4.5-6.6
					L-257.4,333.5L-257.4,333.5z"/>
				<path id="Fill-294" class="st24" d="M-208.5,305.8c-0.8-0.1-1.4-0.3-1.9-0.5l0,0.6c0,0,2,1,4.1,0.3c0-0.2,0-0.4,0-0.6
					C-207,305.8-207.6,305.9-208.5,305.8"/>
			</g>
		</g>
	</g>
</g>
</svg>
